<svg width="22" height="25" viewBox="0 0 22 25" fill="none" xmlns="http://www.w3.org/2000/svg">
<g clip-path="url(#clip0_34_37)">
<path d="M7.85714 5.46875C7.85714 3.74512 9.26652 2.34375 11 2.34375C12.7335 2.34375 14.1429 3.74512 14.1429 5.46875V7.8125H7.85714V5.46875ZM5.5 7.8125H2.35714C1.0558 7.8125 0 8.8623 0 10.1562V20.3125C0 22.9004 2.11161 25 4.71429 25H17.2857C19.8884 25 22 22.9004 22 20.3125V10.1562C22 8.8623 20.9442 7.8125 19.6429 7.8125H16.5V5.46875C16.5 2.44629 14.0397 0 11 0C7.96027 0 5.5 2.44629 5.5 5.46875V7.8125ZM6.67857 10.1562C6.99115 10.1562 7.29092 10.2797 7.51195 10.4995C7.73297 10.7193 7.85714 11.0173 7.85714 11.3281C7.85714 11.6389 7.73297 11.937 7.51195 12.1568C7.29092 12.3765 6.99115 12.5 6.67857 12.5C6.36599 12.5 6.06622 12.3765 5.8452 12.1568C5.62417 11.937 5.5 11.6389 5.5 11.3281C5.5 11.0173 5.62417 10.7193 5.8452 10.4995C6.06622 10.2797 6.36599 10.1562 6.67857 10.1562ZM14.1429 11.3281C14.1429 11.0173 14.267 10.7193 14.4881 10.4995C14.7091 10.2797 15.0089 10.1562 15.3214 10.1562C15.634 10.1562 15.9338 10.2797 16.1548 10.4995C16.3758 10.7193 16.5 11.0173 16.5 11.3281C16.5 11.6389 16.3758 11.937 16.1548 12.1568C15.9338 12.3765 15.634 12.5 15.3214 12.5C15.0089 12.5 14.7091 12.3765 14.4881 12.1568C14.267 11.937 14.1429 11.6389 14.1429 11.3281Z" fill="url(#paint0_linear_34_37)"/>
</g>
<defs>
<linearGradient id="paint0_linear_34_37" x1="11" y1="0" x2="11" y2="25" gradientUnits="userSpaceOnUse">
<stop stop-color="#8C00FB"/>
<stop offset="1" stop-color="#FFB800"/>
</linearGradient>
<clipPath id="clip0_34_37">
<rect width="22" height="25" fill="white"/>
</clipPath>
</defs>
</svg>
