<svg width="30" height="30" viewBox="0 0 30 30" fill="none" xmlns="http://www.w3.org/2000/svg">
<path d="M13.2305 27.4336L13.084 27.2988L2.81836 17.7656C1.01953 16.0957 0 13.752 0 11.2969V11.1035C0 6.97851 2.92969 3.43945 6.98438 2.66601C9.29297 2.2207 11.6543 2.7539 13.5352 4.07812C14.0625 4.45312 14.5547 4.88672 15 5.38476C15.2461 5.10351 15.5098 4.8457 15.791 4.60547C16.0078 4.41797 16.2305 4.24218 16.4648 4.07812C18.3457 2.7539 20.707 2.2207 23.0156 2.66015C27.0703 3.43359 30 6.97851 30 11.1035V11.2969C30 13.752 28.9805 16.0957 27.1816 17.7656L16.916 27.2988L16.7695 27.4336C16.2891 27.8789 15.6562 28.1309 15 28.1309C14.3438 28.1309 13.7109 27.8848 13.2305 27.4336ZM14.0098 8.49609C13.9863 8.47851 13.9688 8.45507 13.9512 8.43164L12.9082 7.25976L12.9023 7.2539C11.5488 5.73633 9.50391 5.04492 7.51172 5.42578C4.78125 5.94726 2.8125 8.32617 2.8125 11.1035V11.2969C2.8125 12.9668 3.50977 14.5664 4.73438 15.7031L15 25.2363L25.2656 15.7031C26.4902 14.5664 27.1875 12.9668 27.1875 11.2969V11.1035C27.1875 8.33203 25.2188 5.94726 22.4941 5.42578C20.502 5.04492 18.4512 5.74218 17.1035 7.2539C17.1035 7.2539 17.1035 7.2539 17.0977 7.25976C17.0918 7.26562 17.0977 7.25976 17.0918 7.26562L16.0488 8.4375C16.0312 8.46093 16.0078 8.47851 15.9902 8.50195C15.7266 8.76562 15.3691 8.91211 15 8.91211C14.6309 8.91211 14.2734 8.76562 14.0098 8.50195V8.49609Z" fill="url(#paint0_linear_34_35)"/>
<defs>
<linearGradient id="paint0_linear_34_35" x1="15" y1="2.50908" x2="15" y2="28.1309" gradientUnits="userSpaceOnUse">
<stop stop-color="#8C00FB"/>
<stop offset="0.994792" stop-color="#FCBA11"/>
</linearGradient>
</defs>
</svg>
