<svg width="94" height="94" viewBox="0 0 94 94" fill="none" xmlns="http://www.w3.org/2000/svg">
<g clip-path="url(#clip0_34_225)">
<path d="M2.95588 47.7711C-1.19334 50.1394 -0.80779 56.455 3.61682 58.291L29.375 69.0312V87.9964C29.375 91.3195 32.0555 94 35.3785 94C37.1594 94 38.8485 93.2105 39.9867 91.8336L51.3695 78.1925L74.1168 87.666C77.5867 89.1164 81.6074 86.8398 82.1766 83.1312L93.9266 6.75622C94.2754 4.53473 93.3024 2.29489 91.4481 1.02809C89.5938 -0.238702 87.1703 -0.348859 85.2059 0.771063L2.95588 47.7711ZM12.5211 52.4527L75.2184 16.6336L34.9012 61.6875L35.1215 61.8711L12.5211 52.4527ZM74.0434 78.1007L43.4567 65.341L82.7641 21.407L74.0434 78.1007Z" fill="url(#paint0_linear_34_225)"/>
</g>
<defs>
<linearGradient id="paint0_linear_34_225" x1="47.0279" y1="-0.000732422" x2="47.0279" y2="94" gradientUnits="userSpaceOnUse">
<stop stop-color="#FFB800"/>
<stop offset="1" stop-color="#8C00FB"/>
</linearGradient>
<clipPath id="clip0_34_225">
<rect width="94" height="94" fill="white"/>
</clipPath>
</defs>
</svg>
